<svg width="42" height="50" viewBox="0 0 42 50" fill="none" xmlns="http://www.w3.org/2000/svg">
<path d="M41 0H7C5.14348 0 3.36301 0.737498 2.05025 2.05025C0.737498 3.36301 0 5.14348 0 7V49C0 49.2652 0.105357 49.5196 0.292893 49.7071C0.48043 49.8946 0.734784 50 1 50H37C37.2652 50 37.5196 49.8946 37.7071 49.7071C37.8946 49.5196 38 49.2652 38 49C38 48.7348 37.8946 48.4804 37.7071 48.2929C37.5196 48.1054 37.2652 48 37 48H2V47C2 45.6739 2.52678 44.4021 3.46447 43.4645C4.40215 42.5268 5.67392 42 7 42H41C41.2652 42 41.5196 41.8946 41.7071 41.7071C41.8946 41.5196 42 41.2652 42 41V1C42 0.734784 41.8946 0.48043 41.7071 0.292893C41.5196 0.105357 41.2652 0 41 0ZM18 2H32V23L25.5975 18.2C25.4244 18.0702 25.2139 18 24.9975 18C24.7811 18 24.5706 18.0702 24.3975 18.2L18 23V2ZM40 40H7C6.06832 39.9997 5.14598 40.1857 4.28729 40.5473C3.4286 40.9088 2.65091 41.4384 2 42.105V7C2 5.67392 2.52678 4.40215 3.46447 3.46447C4.40215 2.52678 5.67392 2 7 2H16V25C16 25.1857 16.0517 25.3678 16.1493 25.5257C16.247 25.6837 16.3867 25.8114 16.5528 25.8944C16.7189 25.9775 16.9048 26.0126 17.0898 25.996C17.2748 25.9793 17.4514 25.9114 17.6 25.8L25 20.25L32.4025 25.8C32.5756 25.9298 32.7861 26 33.0025 26C33.2677 26 33.5221 25.8946 33.7096 25.7071C33.8971 25.5196 34.0025 25.2652 34.0025 25V2H40.0025L40 40Z" fill="#001C13"/>
</svg>
