<svg width="58" height="58" viewBox="0 0 58 58" fill="none" xmlns="http://www.w3.org/2000/svg">
<path d="M12.7488 51.4168C20.5672 51.4288 28.2462 49.3479 34.9888 45.3901C35.8755 44.8701 35.8022 43.5928 34.8808 43.1355L30.0835 40.7501C34.4875 40.7501 43.4168 38.9675 43.4168 38.9675C52.9462 29.7035 57.7902 16.3408 56.5475 3.17812C56.494 2.60564 56.2423 2.06981 55.8357 1.66324C55.4291 1.25667 54.8933 1.00491 54.3208 0.951454C47.4491 0.293634 40.5188 1.25205 34.0835 3.75012C34.0835 3.75012 31.8808 8.93945 31.4168 11.4168L28.7182 7.66079C28.527 7.39083 28.2406 7.20341 27.9167 7.13635C27.5927 7.06929 27.2555 7.12758 26.9728 7.29945C14.4355 14.9995 6.0835 27.8968 6.0835 45.4168" stroke="#E5EEEB" stroke-width="1.5" stroke-linecap="round" stroke-linejoin="round"/>
<path d="M0.750183 56.7501C7.41685 37.4167 28.7502 20.7501 46.0835 11.4167" stroke="#E5EEEB" stroke-width="1.5" stroke-linecap="round" stroke-linejoin="round"/>
</svg>
