<svg width="55" height="50" viewBox="0 0 55 50" fill="none" xmlns="http://www.w3.org/2000/svg">
<path d="M19.4167 19.4167C19.4167 29.726 27.4167 38.0833 27.4167 38.0833C27.4167 38.0833 35.4167 29.726 35.4167 19.4167C35.4167 9.10733 27.4167 0.75 27.4167 0.75C27.4167 0.75 19.4167 9.10733 19.4167 19.4167Z" stroke="#001C13" stroke-width="1.5" stroke-linejoin="round"/>
<path d="M12.2967 14.0834C6.39 11.5394 0.75 11.4167 0.75 11.4167C0.75 11.4167 1.006 23.0994 8.36867 30.4647C15.7313 37.8301 27.4167 38.0834 27.4167 38.0834C27.4167 38.0834 39.0993 37.8274 46.4647 30.4647C53.83 23.1021 54.0833 11.4167 54.0833 11.4167C54.0833 11.4167 48.446 11.5394 42.5367 14.0834M27.47 38.0834C27.0273 41.6381 29.1767 48.7501 36.7873 48.7501C42.1073 48.7501 44.7687 43.4167 54.0833 48.7501C53.0167 43.4167 50.8833 40.0034 47.7713 38.0834M27.3607 38.0834C27.806 41.6381 25.654 48.7501 18.0487 48.7501C12.7233 48.7501 10.0647 43.4167 0.75 48.7501C1.81667 43.4167 3.95 40.0034 7.062 38.0834" stroke="#001C13" stroke-width="1.5" stroke-linecap="round" stroke-linejoin="round"/>
</svg>
