<svg width="40" height="40" viewBox="0 0 40 40" fill="none" xmlns="http://www.w3.org/2000/svg">
<path d="M23.7037 5.23486C23.7549 5.17019 23.8183 5.11628 23.8903 5.07622C23.9624 5.03616 24.0417 5.01076 24.1236 5.00146C24.2055 4.99217 24.2884 4.99917 24.3676 5.02206C24.4468 5.04496 24.5207 5.08329 24.585 5.13486L25.935 6.21736L20.9987 12.4999H24.1788L27.8888 7.77986L31.0188 10.2874C31.0843 10.3399 31.1387 10.4051 31.1785 10.4791C31.2183 10.553 31.2428 10.6343 31.2505 10.7179C31.2582 10.8016 31.2489 10.886 31.2233 10.966C31.1977 11.046 31.1561 11.12 31.1012 11.1836L29.9662 12.4999H33.2337C33.6641 11.8496 33.8358 11.0618 33.7151 10.2914C33.5943 9.52102 33.1899 8.82359 32.5813 8.33611L26.1475 3.18361C25.8261 2.92628 25.457 2.735 25.0615 2.62076C24.6659 2.50652 24.2517 2.47156 23.8426 2.51791C23.4335 2.56426 23.0376 2.69099 22.6776 2.89082C22.3176 3.09066 22.0007 3.35965 21.745 3.68236L14.7612 12.4999H17.95L23.7037 5.23486ZM26.25 23.7499C25.9185 23.7499 25.6005 23.8816 25.3661 24.116C25.1317 24.3504 25 24.6683 25 24.9999C25 25.3314 25.1317 25.6493 25.3661 25.8837C25.6005 26.1182 25.9185 26.2499 26.25 26.2499H30C30.3315 26.2499 30.6495 26.1182 30.8839 25.8837C31.1183 25.6493 31.25 25.3314 31.25 24.9999C31.25 24.6683 31.1183 24.3504 30.8839 24.116C30.6495 23.8816 30.3315 23.7499 30 23.7499H26.25ZM7.5 8.74986C6.50544 8.74986 5.55161 9.14495 4.84835 9.84821C4.14509 10.5515 3.75 11.5053 3.75 12.4999V30.6249C3.75 32.1167 4.34263 33.5474 5.39752 34.6023C6.45242 35.6572 7.88316 36.2499 9.375 36.2499H30.625C32.1168 36.2499 33.5476 35.6572 34.6025 34.6023C35.6574 33.5474 36.25 32.1167 36.25 30.6249V19.3749C36.25 17.883 35.6574 16.4523 34.6025 15.3974C33.5476 14.3425 32.1168 13.7499 30.625 13.7499H7.5C7.16848 13.7499 6.85054 13.6182 6.61612 13.3837C6.3817 13.1493 6.25 12.8314 6.25 12.4999C6.25 12.1683 6.3817 11.8504 6.61612 11.616C6.85054 11.3816 7.16848 11.2499 7.5 11.2499H13.225L15.22 8.74986H7.5ZM6.25 30.6249V16.0374C6.64125 16.1749 7.0625 16.2499 7.5 16.2499H30.625C31.4538 16.2499 32.2487 16.5791 32.8347 17.1651C33.4208 17.7512 33.75 18.5461 33.75 19.3749V30.6249C33.75 31.4537 33.4208 32.2485 32.8347 32.8346C32.2487 33.4206 31.4538 33.7499 30.625 33.7499H9.375C8.5462 33.7499 7.75134 33.4206 7.16529 32.8346C6.57924 32.2485 6.25 31.4537 6.25 30.6249Z" fill="white"/>
</svg>
