<svg width="40" height="40" viewBox="0 0 40 40" fill="none" xmlns="http://www.w3.org/2000/svg">
<path d="M27.8248 5.331H22.264C21.2592 5.3342 21.2968 6.83181 22.264 6.82301H27.8248V7.5886H22.264C21.2648 7.5798 21.3016 9.0766 22.264 9.0806H27.8248V9.86301H22.264C21.2648 9.86301 21.3016 11.359 22.264 11.355H27.8248V12.1006H22.264C21.2856 12.1078 21.3016 13.6054 22.264 13.6102H27.8248V14.3574H22.264C21.2856 14.3542 21.2816 15.8494 22.264 15.8494H27.8248V16.595H22.264C21.2856 16.5982 21.2816 18.095 22.264 18.0878H27.8248V18.8518H22.264C21.2856 18.843 21.2816 20.3382 22.264 20.3438H27.8248V21.0878H22.264C21.2856 21.087 21.3016 22.5854 22.264 22.5806H27.8248V37.1078C27.828 39.3214 31.1904 39.2814 31.2 37.1078V3.1118C31.1904 2.1006 30.36 0.822205 28.9936 0.818205H22.264C21.2592 0.819005 21.2968 2.3166 22.264 2.3102L27.8248 2.3286V3.0726H22.264C21.2608 3.0678 21.2984 4.5646 22.264 4.5654H27.8248V5.331ZM21.8816 31.0862C21.8784 28.5022 19.2 25.723 16 27.523V17.6398L13.9304 1.3398C13.8872 0.908605 13.5216 0.807005 13.276 0.799805C13.0224 0.807005 12.5144 0.908605 12.4592 1.3398L10.4 17.6398V27.523C7.20001 25.723 4.60801 28.5198 4.60721 31.0662C4.60801 33.3318 6.35201 35.1926 8.71201 35.187C11.0896 35.1926 12.8 33.107 12.8 31.0662V20.7998H13.6V31.0662C13.6 33.351 15.3696 35.0422 17.336 35.1494C17.3032 36.4022 17.712 38.1894 18.4816 38.8982C19.384 39.7302 20.4584 38.6662 20.0176 37.7998C19.592 36.9934 19.1744 36.5158 19.5136 34.755C20.9312 34.099 21.8784 32.7182 21.8816 31.0862ZM8.80321 33.119C8.26376 33.119 7.7464 32.9047 7.36495 32.5233C6.9835 32.1418 6.76921 31.6245 6.76921 31.085C6.76921 30.5456 6.9835 30.0282 7.36495 29.6468C7.7464 29.2653 8.26376 29.051 8.80321 29.051C9.91201 29.0574 10.8152 29.967 10.8232 31.0862C10.8213 31.6226 10.6083 32.1366 10.2303 32.517C9.85221 32.8975 9.33953 33.1137 8.80321 33.119ZM15.66 31.0862C15.6619 30.5495 15.8749 30.0351 16.2531 29.6542C16.6312 29.2734 17.1441 29.0567 17.6808 29.051C18.2175 29.0563 18.7306 29.2729 19.1087 29.6538C19.4868 30.0348 19.6996 30.5494 19.7008 31.0862C19.7 31.6229 19.4873 32.1375 19.109 32.5182C18.7307 32.8989 18.2175 33.1148 17.6808 33.119C17.1443 33.114 16.6315 32.8978 16.2532 32.5173C15.875 32.1368 15.6619 31.6227 15.66 31.0862Z" fill="white"/>
</svg>
