<svg width="40" height="40" viewBox="0 0 40 40" fill="none" xmlns="http://www.w3.org/2000/svg">
<path fill-rule="evenodd" clip-rule="evenodd" d="M16.5667 4.18654C19.165 3.8916 21.7884 3.8916 24.3867 4.18654L27.0467 4.48987C27.2347 4.51115 27.4155 4.57484 27.5753 4.67615C27.7352 4.77745 27.8699 4.91373 27.9694 5.0747C28.0689 5.23567 28.1306 5.41713 28.1497 5.6054C28.1689 5.79366 28.145 5.98383 28.08 6.16154L24.4083 16.1882H28.3333C28.5354 16.1882 28.7345 16.2372 28.9135 16.331C29.0925 16.4248 29.2461 16.5605 29.3611 16.7267C29.4761 16.8928 29.5491 17.0844 29.5739 17.2849C29.5987 17.4855 29.5745 17.6891 29.5033 17.8782L29.1867 18.7232C26.9834 24.5878 23.8703 30.0689 19.9617 34.9649L19.31 35.7815C19.1482 35.9841 18.9275 36.1313 18.6783 36.2029C18.4291 36.2744 18.1639 36.2667 17.9193 36.1808C17.6747 36.095 17.4629 35.9352 17.3131 35.7236C17.1633 35.512 17.083 35.2591 17.0833 34.9999V23.0799H14.0483C13.7356 23.0803 13.4341 22.9634 13.2033 22.7523C12.9725 22.5413 12.8292 22.2514 12.8017 21.9399L12.5983 19.6365C12.2548 15.7402 12.2548 11.8212 12.5983 7.92487L12.8017 5.62154C12.8268 5.33413 12.9505 5.06425 13.1519 4.85769C13.3533 4.65112 13.62 4.52058 13.9067 4.48821L16.5667 4.18654ZM24.105 6.66987C21.6939 6.39615 19.2595 6.39615 16.8483 6.66987L15.2033 6.85821L15.0883 8.14487C14.755 11.8949 14.755 15.6665 15.0883 19.4165L15.1917 20.5799H18.3333C18.6649 20.5799 18.9828 20.7116 19.2172 20.946C19.4516 21.1804 19.5833 21.4984 19.5833 21.8299V31.3365C22.421 27.4303 24.7523 23.1804 26.5217 18.6882H22.6167C22.4157 18.688 22.2178 18.6394 22.0396 18.5465C21.8615 18.4536 21.7083 18.3191 21.5932 18.1544C21.4781 17.9897 21.4043 17.7997 21.3782 17.6005C21.3522 17.4012 21.3745 17.1986 21.4433 17.0099L25.1833 6.79321L24.105 6.66987Z" fill="white"/>
</svg>
