<svg width="40" height="40" viewBox="0 0 40 40" fill="none" xmlns="http://www.w3.org/2000/svg">
<path d="M21.6667 4.99984C28.1333 4.99984 33.3333 10.2332 33.3333 16.6665C33.3333 21.3332 30.6167 25.3165 26.6667 27.1832V34.9998H15V29.9998H13.3333C11.4833 29.9998 10 28.5165 10 26.6665V21.6665H7.5C6.8 21.6665 6.4 20.8332 6.8 20.3165L10 16.0998C10.1468 13.1053 11.4404 10.2822 13.6125 8.21558C15.7845 6.14901 18.6686 4.99752 21.6667 4.99984ZM21.6667 1.6665C14.0167 1.6665 7.68333 7.3665 6.76666 14.8332L4.16666 18.3332H4.11666L4.08333 18.3832C3.16666 19.6498 3.05 21.3165 3.76666 22.6998C4.36666 23.8498 5.43333 24.6498 6.66666 24.8998V26.6665C6.66666 29.7498 8.8 32.3665 11.6667 33.1165V38.3332H30V29.1665C34.1667 26.3832 36.6667 21.7665 36.6667 16.6665C36.6667 8.38317 29.9333 1.6665 21.6667 1.6665ZM28.3333 14.7165C28.3333 17.2832 26.0667 19.3332 22.6333 22.4498L21.6667 23.3332L20.7 22.4498C17.2667 19.3332 15 17.2832 15 14.7165C15 12.7165 16.6 11.0665 18.6 11.0498H18.6667C19.8167 11.0498 20.9167 11.5665 21.6667 12.4332C22.4167 11.5665 23.5167 11.0498 24.6667 11.0498C26.6667 11.0332 28.3333 12.6498 28.3333 14.6498V14.7165Z" fill="white"/>
</svg>
