<svg width="24" height="24" viewBox="0 0 24 24" fill="none" xmlns="http://www.w3.org/2000/svg">
<path d="M17.2827 21.0138L21.2216 21.9712L20.8045 17.7312L20.7813 17.4577L20.8972 17.2525C21.4069 16.4546 21.7776 15.5884 22.0557 14.6766C22.2874 13.7876 22.4264 12.8529 22.4264 11.8727C22.4264 9.00047 21.2679 6.42457 19.368 4.55723C17.4912 2.68798 14.873 1.5482 12.0019 1.5482C9.13081 1.5482 6.5107 2.68798 4.63588 4.55723C2.73596 6.42647 1.57747 9.00237 1.57747 11.8727C1.57747 14.7431 2.73596 17.2981 4.63588 19.1654C6.51263 21.0347 9.13081 22.1972 12.0019 22.1972C12.8592 22.1972 13.6702 22.0833 14.4348 21.9009C15.2457 21.7185 16.0103 21.4222 16.7517 21.0575L17.0066 20.9207L17.2846 21.0119L17.2827 21.0138ZM21.9147 23.7492L17.1881 22.5639C16.4235 22.9286 15.6357 23.2022 14.8016 23.4073C13.898 23.6125 12.948 23.7265 11.9981 23.7265C8.68479 23.7265 5.67273 22.4043 3.51987 20.2615C1.34385 18.1206 0 15.1344 0 11.8746C0 8.61485 1.34385 5.63052 3.5218 3.48773C5.67659 1.32215 8.68673 0 12 0C15.3133 0 18.3022 1.32215 20.4782 3.48773C22.6562 5.63052 24 8.59395 24 11.8746C24 12.9688 23.8378 14.063 23.5598 15.0888C23.2817 16.0462 22.8879 16.9808 22.3781 17.8243L22.8879 22.9305L22.9805 24.0019L21.9147 23.7511V23.7492Z" fill="black"/>
</svg>
