<svg width="28" height="24" viewBox="0 0 28 24" fill="none" xmlns="http://www.w3.org/2000/svg">
<path d="M0.754557 0H27.2332C27.6615 0 27.9995 0.33885 27.9995 0.76806C27.9995 0.94878 27.9319 1.10691 27.8418 1.24245L11.0977 23.6932C10.8498 24.032 10.354 24.0998 10.0159 23.8513C9.81305 23.6932 9.70036 23.4221 9.7229 23.1736L9.9032 9.26002L0.281254 1.3554C-0.0342811 1.08432 -0.101896 0.60993 0.168563 0.29367C0.326331 0.09036 0.551713 0 0.754557 0ZM10.7597 7.99498L23.9426 1.53612H2.89569L10.7597 7.99686V7.99498ZM24.7315 2.84634L11.4133 9.37297L11.278 20.892L24.7315 2.84634Z" fill="black"/>
</svg>
