<svg width="56" height="56" viewBox="0 0 56 56" fill="none" xmlns="http://www.w3.org/2000/svg">
<path d="M37.3333 16.3333C37.3333 15.7145 37.5792 15.121 38.0168 14.6834C38.4543 14.2458 39.0478 14 39.6667 14C40.2855 14 40.879 14.2458 41.3166 14.6834C41.7542 15.121 42 15.7145 42 16.3333C42 16.9522 41.7542 17.5457 41.3166 17.9832C40.879 18.4208 40.2855 18.6667 39.6667 18.6667C39.0478 18.6667 38.4543 18.4208 38.0168 17.9832C37.5792 17.5457 37.3333 16.9522 37.3333 16.3333Z" fill="white"/>
<path fill-rule="evenodd" clip-rule="evenodd" d="M28 16.9167C25.0605 16.9167 22.2414 18.0844 20.1629 20.1629C18.0844 22.2414 16.9167 25.0605 16.9167 28C16.9167 30.9395 18.0844 33.7586 20.1629 35.8371C22.2414 37.9156 25.0605 39.0834 28 39.0834C30.9395 39.0834 33.7586 37.9156 35.8371 35.8371C37.9156 33.7586 39.0833 30.9395 39.0833 28C39.0833 25.0605 37.9156 22.2414 35.8371 20.1629C33.7586 18.0844 30.9395 16.9167 28 16.9167ZM20.4167 28C20.4167 25.9888 21.2156 24.0599 22.6378 22.6378C24.0599 21.2156 25.9888 20.4167 28 20.4167C30.0112 20.4167 31.9401 21.2156 33.3622 22.6378C34.7844 24.0599 35.5833 25.9888 35.5833 28C35.5833 30.0112 34.7844 31.9401 33.3622 33.3622C31.9401 34.7844 30.0112 35.5834 28 35.5834C25.9888 35.5834 24.0599 34.7844 22.6378 33.3622C21.2156 31.9401 20.4167 30.0112 20.4167 28Z" fill="white"/>
<path fill-rule="evenodd" clip-rule="evenodd" d="M40.2687 6.61033C32.1146 5.70598 23.8855 5.70598 15.7313 6.61033C11.0367 7.13533 7.24501 10.8337 6.69434 15.5517C5.72859 23.8225 5.72859 32.1775 6.69434 40.4483C7.24501 45.1663 11.0343 48.8647 15.7313 49.3897C23.8856 50.2921 32.1145 50.2921 40.2687 49.3897C44.9633 48.8647 48.755 45.1663 49.3057 40.4483C50.2714 32.1775 50.2714 23.8225 49.3057 15.5517C48.755 10.8337 44.9657 7.13533 40.2687 6.61033ZM16.1187 10.087C24.0154 9.21131 31.9847 9.21131 39.8813 10.087C42.9847 10.437 45.4697 12.8847 45.8313 15.96C46.7673 23.9594 46.7673 32.0406 45.8313 40.04C45.6443 41.5451 44.9553 42.9432 43.8757 44.0084C42.796 45.0736 41.3888 45.7438 39.8813 45.9107C31.9847 46.7863 24.0154 46.7863 16.1187 45.9107C14.6112 45.7438 13.204 45.0736 12.1244 44.0084C11.0447 42.9432 10.3557 41.5451 10.1687 40.04C9.23268 32.0406 9.23268 23.9594 10.1687 15.96C10.3557 14.4549 11.0447 13.0568 12.1244 11.9916C13.204 10.9263 14.6112 10.2538 16.1187 10.087Z" fill="white"/>
</svg>
