<svg width="256" height="135" viewBox="0 0 256 135" fill="none" xmlns="http://www.w3.org/2000/svg">
<path d="M17.856 5.472C15.6587 4.192 13.2267 3.456 10.56 3.264V23.744H8.192V3.264C5.568 3.43467 3.12533 4.17067 0.864 5.472L0 3.616C2.77333 1.97333 5.888 1.152 9.344 1.152C12.864 1.152 15.9893 1.97333 18.72 3.616L17.856 5.472Z" fill="white"/>
<path d="M24.3958 21.888C25.4411 21.888 26.4011 21.7067 27.2758 21.344C28.1718 20.96 28.9291 20.4053 29.5478 19.68L30.8278 21.152C30.0811 22.048 29.1531 22.7307 28.0438 23.2C26.9344 23.6693 25.7078 23.904 24.3638 23.904C22.6357 23.904 21.0998 23.5413 19.7558 22.816C18.4118 22.0693 17.3664 21.0453 16.6197 19.744C15.8731 18.4427 15.4998 16.9707 15.4998 15.328C15.4998 13.6853 15.8517 12.2133 16.5557 10.912C17.2811 9.61067 18.2731 8.59733 19.5317 7.872C20.7904 7.14667 22.2197 6.784 23.8197 6.784C25.3131 6.784 26.6571 7.12533 27.8517 7.808C29.0677 8.49067 30.0278 9.44 30.7318 10.656C31.4571 11.872 31.8411 13.2587 31.8838 14.816L18.0597 17.504C18.4864 18.8693 19.2544 19.9467 20.3638 20.736C21.4944 21.504 22.8384 21.888 24.3958 21.888ZM23.8197 8.736C22.6464 8.736 21.5904 9.01333 20.6518 9.568C19.7344 10.1013 19.0091 10.8587 18.4757 11.84C17.9637 12.8 17.7078 13.9093 17.7078 15.168C17.7078 15.488 17.7184 15.7227 17.7397 15.872L29.6117 13.568C29.3557 12.16 28.7051 11.008 27.6597 10.112C26.6144 9.19467 25.3344 8.736 23.8197 8.736Z" fill="white"/>
<path d="M41.9162 22.72C41.4896 23.104 40.9669 23.4027 40.3483 23.616C39.7296 23.808 39.0789 23.904 38.3963 23.904C36.8176 23.904 35.6016 23.4773 34.7482 22.624C33.8949 21.7707 33.4683 20.5653 33.4683 19.008V3.232H35.7402V6.912H40.8283V8.832H35.7402V18.88C35.7402 19.8827 35.9856 20.6507 36.4762 21.184C36.9669 21.696 37.6816 21.952 38.6203 21.952C39.6442 21.952 40.4762 21.664 41.1162 21.088L41.9162 22.72Z" fill="white"/>
<path d="M43.1545 6.912H45.4265V23.744H43.1545V6.912ZM44.3065 3.232C43.8372 3.232 43.4425 3.072 43.1225 2.752C42.8025 2.432 42.6425 2.048 42.6425 1.6C42.6425 1.17333 42.8025 0.800001 43.1225 0.48C43.4425 0.16 43.8372 0 44.3065 0C44.7758 0 45.1705 0.16 45.4905 0.48C45.8105 0.778666 45.9705 1.14133 45.9705 1.568C45.9705 2.03733 45.8105 2.432 45.4905 2.752C45.1705 3.072 44.7758 3.232 44.3065 3.232Z" fill="white"/>
<path d="M64.2282 6.912V23.744H62.0522V20.416C61.3696 21.5467 60.4629 22.4107 59.3322 23.008C58.2229 23.6053 56.9643 23.904 55.5563 23.904C53.9776 23.904 52.5482 23.5413 51.2682 22.816C49.9883 22.0907 48.9856 21.0773 48.2603 19.776C47.5349 18.4747 47.1722 16.992 47.1722 15.328C47.1722 13.664 47.5349 12.1813 48.2603 10.88C48.9856 9.57867 49.9883 8.576 51.2682 7.872C52.5482 7.14667 53.9776 6.784 55.5563 6.784C56.9216 6.784 58.1482 7.072 59.2362 7.648C60.3456 8.20267 61.2523 9.024 61.9562 10.112V6.912H64.2282ZM55.7482 21.888C56.9216 21.888 57.9776 21.6213 58.9162 21.088C59.8762 20.5333 60.6229 19.7547 61.1562 18.752C61.7109 17.7493 61.9883 16.608 61.9883 15.328C61.9883 14.048 61.7109 12.9067 61.1562 11.904C60.6229 10.9013 59.8762 10.1333 58.9162 9.6C57.9776 9.04533 56.9216 8.768 55.7482 8.768C54.5536 8.768 53.4762 9.04533 52.5163 9.6C51.5776 10.1333 50.8309 10.9013 50.2762 11.904C49.7429 12.9067 49.4762 14.048 49.4762 15.328C49.4762 16.608 49.7429 17.7493 50.2762 18.752C50.8309 19.7547 51.5776 20.5333 52.5163 21.088C53.4762 21.6213 54.5536 21.888 55.7482 21.888Z" fill="white"/>
<path d="M76.2517 6.784C78.3637 6.784 80.0384 7.40267 81.2757 8.64C82.5344 9.856 83.1637 11.6373 83.1637 13.984V23.744H80.8917V14.208C80.8917 12.4587 80.4544 11.1253 79.5798 10.208C78.7051 9.29067 77.4571 8.832 75.8357 8.832C74.0224 8.832 72.5824 9.376 71.5157 10.464C70.4704 11.5307 69.9477 13.0133 69.9477 14.912V23.744H67.6758V6.912H69.8517V10.016C70.4704 8.992 71.3238 8.20267 72.4118 7.648C73.5211 7.072 74.8011 6.784 76.2517 6.784Z" fill="white"/>
<path d="M101.875 6.912V23.744H99.6985V20.416C99.0158 21.5467 98.1092 22.4107 96.9785 23.008C95.8692 23.6053 94.6105 23.904 93.2025 23.904C91.6238 23.904 90.1945 23.5413 88.9145 22.816C87.6345 22.0907 86.6318 21.0773 85.9065 19.776C85.1812 18.4747 84.8185 16.992 84.8185 15.328C84.8185 13.664 85.1812 12.1813 85.9065 10.88C86.6318 9.57867 87.6345 8.576 88.9145 7.872C90.1945 7.14667 91.6238 6.784 93.2025 6.784C94.5678 6.784 95.7945 7.072 96.8825 7.648C97.9918 8.20267 98.8985 9.024 99.6025 10.112V6.912H101.875ZM93.3945 21.888C94.5678 21.888 95.6238 21.6213 96.5625 21.088C97.5225 20.5333 98.2692 19.7547 98.8025 18.752C99.3572 17.7493 99.6345 16.608 99.6345 15.328C99.6345 14.048 99.3572 12.9067 98.8025 11.904C98.2692 10.9013 97.5225 10.1333 96.5625 9.6C95.6238 9.04533 94.5678 8.768 93.3945 8.768C92.1998 8.768 91.1225 9.04533 90.1625 9.6C89.2238 10.1333 88.4772 10.9013 87.9225 11.904C87.3892 12.9067 87.1225 14.048 87.1225 15.328C87.1225 16.608 87.3892 17.7493 87.9225 18.752C88.4772 19.7547 89.2238 20.5333 90.1625 21.088C91.1225 21.6213 92.1998 21.888 93.3945 21.888Z" fill="white"/>
<path d="M35.104 123.912C33.952 123.912 32.736 123.816 31.456 123.624C26.272 122.856 21.792 120.872 18.016 117.672C14.304 114.472 11.424 110.536 9.376 105.864C7.392 101.128 6.4 96.136 6.4 90.888C6.4 86.6 7.104 82.44 8.512 78.408C9.856 74.504 11.584 70.696 13.696 66.984C15.808 63.272 18.496 59.784 21.76 56.52C25.024 53.256 29.024 50.344 33.76 47.784C38.56 45.224 44.32 43.144 51.04 41.544C57.76 39.88 65.664 38.856 74.752 38.472C75.648 38.408 76.704 38.376 77.92 38.376C79.2 38.376 80.48 38.376 81.76 38.376C83.552 38.376 85.28 38.376 86.944 38.376C88.608 38.376 89.92 38.408 90.88 38.472C91.392 38.472 91.648 38.728 91.648 39.24C91.648 39.688 91.392 39.912 90.88 39.912C88.576 39.976 86.72 40.776 85.312 42.312C83.904 43.848 82.496 45.832 81.088 48.264C80.32 49.864 79.68 51.688 79.168 53.736C82.432 54.76 85.472 56.392 88.288 58.632C91.104 60.808 93.504 63.336 95.488 66.216C98.112 61.736 100.832 57.384 103.648 53.16C106.528 48.936 109.472 45.096 112.48 41.64C116.064 37.544 119.616 34.6 123.136 32.808C126.656 30.952 129.824 30.024 132.64 30.024C135.904 30.024 138.528 31.08 140.512 33.192C142.56 35.24 143.584 38.024 143.584 41.544C143.584 45.256 142.176 49.608 139.36 54.6C136.608 59.592 131.968 64.808 125.44 70.248C122.176 72.936 118.464 75.336 114.304 77.448C110.208 79.496 105.92 81.224 101.44 82.632V84.072C101.44 88.36 100.8 91.688 99.52 94.056C98.24 96.424 96.672 98.056 94.816 98.952C93.024 99.848 91.328 100.296 89.728 100.296C88.512 100.296 87.456 100.136 86.56 99.816C85.728 99.432 85.248 99.016 85.12 98.568V98.376C85.12 98.056 85.28 97.896 85.6 97.896C85.92 97.832 86.112 97.96 86.176 98.28C86.24 98.344 86.592 98.504 87.232 98.76C87.872 99.016 88.704 99.144 89.728 99.144C90.24 99.144 90.784 99.112 91.36 99.048C91.936 98.92 92.544 98.728 93.184 98.472C94.976 97.768 96.608 96.36 98.08 94.248C99.552 92.136 100.288 88.744 100.288 84.072V83.016C96.448 84.168 92.48 85.032 88.384 85.608C87.744 86.568 87.104 87.528 86.464 88.488C85.824 89.384 85.152 90.28 84.448 91.176C81.504 95.336 78.528 99.112 75.52 102.504C72.512 105.896 69.568 108.552 66.688 110.472C63.872 112.456 61.216 113.384 58.72 113.256C58.208 113.256 57.952 113.064 57.952 112.68C57.952 112.424 58.08 112.2 58.336 112.008C60.832 110.28 62.848 108.04 64.384 105.288C65.984 102.536 67.232 99.464 68.128 96.072C69.088 92.616 69.824 89.096 70.336 85.512C66.176 84.872 62.304 83.816 58.72 82.344C55.136 80.808 52.288 78.824 50.176 76.392C48.064 73.96 47.104 71.112 47.296 67.848C47.552 64.2 48.704 61.224 50.752 58.92C52.8 56.616 55.36 54.92 58.432 53.832C61.568 52.744 64.832 52.2 68.224 52.2C69.504 52.2 70.752 52.264 71.968 52.392C73.184 52.52 74.4 52.712 75.616 52.968C75.936 52.008 76.32 51.176 76.768 50.472C77.728 48.808 79.072 46.952 80.8 44.904C82.528 42.792 84.448 41.288 86.56 40.392C85.024 40.264 83.456 40.168 81.856 40.104C80.32 40.04 78.752 40.008 77.152 40.008C70.176 40.008 63.264 40.744 56.416 42.216C49.632 43.624 43.232 45.896 37.216 49.032C31.264 52.104 26.016 56.136 21.472 61.128C16.928 66.12 13.44 72.136 11.008 79.176C9.536 83.464 8.8 87.752 8.8 92.04C8.8 96.904 9.696 101.512 11.488 105.864C13.344 110.216 15.968 113.864 19.36 116.808C22.752 119.752 26.848 121.576 31.648 122.28C32.224 122.344 32.8 122.376 33.376 122.376C33.952 122.44 34.528 122.472 35.104 122.472C39.2 122.472 42.976 121.512 46.432 119.592C49.888 117.672 52.16 114.792 53.248 110.952C53.312 110.632 53.536 110.472 53.92 110.472C54.496 110.472 54.72 110.76 54.592 111.336C53.824 114.152 52.448 116.488 50.464 118.344C48.48 120.2 46.144 121.576 43.456 122.472C40.768 123.432 37.984 123.912 35.104 123.912ZM101.344 81.384C109.28 78.824 116.384 75.048 122.656 70.056C127.136 66.472 130.784 62.856 133.6 59.208C136.48 55.56 138.592 52.136 139.936 48.936C141.344 45.672 142.048 42.824 142.048 40.392C142.048 38.28 141.536 36.616 140.512 35.4C139.488 34.12 138.016 33.48 136.096 33.48C134.048 33.48 131.488 34.312 128.416 35.976C125.408 37.64 121.952 40.424 118.048 44.328C114.656 47.784 111.296 51.816 107.968 56.424C104.64 61.032 101.376 65.768 98.176 70.632C99.008 72.296 99.68 74.056 100.192 75.912C100.768 77.704 101.152 79.528 101.344 81.384ZM70.528 84.264C71.04 80.808 71.424 77.416 71.68 74.088C72 70.696 72.352 67.656 72.736 64.968C73.056 62.92 73.408 60.968 73.792 59.112C74.176 57.256 74.656 55.528 75.232 53.928C73.44 53.544 71.552 53.352 69.568 53.352C66.56 53.352 63.648 53.864 60.832 54.888C58.08 55.848 55.808 57.416 54.016 59.592C52.224 61.704 51.2 64.456 50.944 67.848C50.752 70.792 51.488 73.384 53.152 75.624C54.816 77.864 57.152 79.72 60.16 81.192C63.168 82.6 66.624 83.624 70.528 84.264ZM77.056 84.936C78.336 85 79.616 85.032 80.896 85.032C82.24 84.968 83.552 84.872 84.832 84.744C86.496 81.992 88.128 79.144 89.728 76.2C91.392 73.192 93.12 70.216 94.912 67.272C92.928 64.456 90.56 61.96 87.808 59.784C85.12 57.544 82.176 55.912 78.976 54.888C78.4 57.96 78.048 61.32 77.92 64.968C77.792 68.616 77.696 72.2 77.632 75.72C77.632 79.176 77.44 82.248 77.056 84.936ZM89.248 84.264C91.104 83.944 92.928 83.592 94.72 83.208C96.576 82.824 98.4 82.344 100.192 81.768C99.936 78.376 99.008 75.048 97.408 71.784L89.248 84.264ZM65.728 108.744C68.544 107.72 71.488 105.128 74.56 100.968C77.632 96.744 80.832 91.784 84.16 86.088C82.944 86.152 81.728 86.216 80.512 86.28C79.296 86.28 78.112 86.248 76.96 86.184C76.32 90.28 75.168 94.28 73.504 98.184C71.84 102.088 69.248 105.608 65.728 108.744Z" fill="white"/>
<path d="M116.549 85.064C115.951 85.064 115.439 84.872 115.013 84.488C114.629 84.0613 114.437 83.5707 114.437 83.016C114.437 82.2907 114.671 81.672 115.141 81.16C115.653 80.648 116.25 80.392 116.933 80.392C117.53 80.392 118.042 80.6053 118.469 81.032C118.895 81.4587 119.109 81.992 119.109 82.632C119.109 83.3147 118.853 83.8907 118.341 84.36C117.829 84.8293 117.231 85.064 116.549 85.064ZM109.509 109.064C108.741 109.064 108.122 108.787 107.653 108.232C107.226 107.635 107.013 106.867 107.013 105.928C107.013 104.733 107.247 103.453 107.717 102.088C108.229 100.723 108.805 99.3573 109.445 97.992C110.127 96.584 110.725 95.2613 111.237 94.024C111.45 93.4267 111.642 92.8933 111.813 92.424C111.983 91.9547 112.069 91.5707 112.069 91.272C112.069 90.8453 111.877 90.632 111.493 90.632C110.981 90.632 110.469 90.952 109.957 91.592C109.445 92.232 108.975 92.9573 108.549 93.768C108.165 94.536 107.845 95.1547 107.589 95.624C106.949 96.8613 106.245 98.1413 105.477 99.464C104.751 100.787 104.005 102.003 103.237 103.112C103.237 103.155 103.194 103.176 103.109 103.176C103.023 103.176 102.917 103.112 102.789 102.984C102.661 102.856 102.618 102.771 102.661 102.728C103.471 101.576 104.218 100.36 104.901 99.08C105.626 97.7573 106.287 96.4987 106.885 95.304C107.311 94.408 107.781 93.4907 108.293 92.552C108.847 91.5707 109.487 90.76 110.213 90.12C110.938 89.4373 111.77 89.096 112.709 89.096C113.135 89.096 113.626 89.2027 114.181 89.416C114.821 89.672 115.141 90.2267 115.141 91.08C115.141 91.5067 115.055 92.0187 114.885 92.616C114.757 93.1707 114.565 93.8107 114.309 94.536C113.754 95.9867 113.135 97.4587 112.453 98.952C111.813 100.403 111.215 101.875 110.661 103.368C110.234 104.52 110.021 105.544 110.021 106.44C110.021 107.421 110.341 107.912 110.981 107.912C111.578 107.912 112.495 107.379 113.733 106.312C114.97 105.203 116.122 103.816 117.189 102.152C118.255 100.445 119.535 98.1627 121.029 95.304C121.071 95.2187 121.157 95.176 121.285 95.176C121.37 95.176 121.455 95.24 121.541 95.368C121.669 95.4533 121.711 95.5387 121.669 95.624C119.407 100.019 117.381 103.368 115.589 105.672C113.797 107.933 111.77 109.064 109.509 109.064Z" fill="white"/>
<path d="M132.21 109.064C130.418 109.064 129.522 108.061 129.522 106.056C129.522 105.288 129.671 104.371 129.97 103.304C130.268 102.237 130.738 101.064 131.378 99.784C131.719 99.0587 132.167 98.2053 132.722 97.224C133.319 96.2 133.852 95.1973 134.322 94.216C134.791 93.2347 135.026 92.4667 135.026 91.912C135.026 91.3573 134.727 91.08 134.13 91.08C133.319 91.08 132.466 91.528 131.57 92.424C130.716 93.2773 129.863 94.3867 129.01 95.752C128.156 97.1173 127.346 98.5467 126.578 100.04C125.81 101.533 125.148 102.941 124.594 104.264C124.039 105.544 123.634 106.525 123.378 107.208C123.122 107.848 122.759 108.253 122.29 108.424C121.82 108.595 121.308 108.68 120.754 108.68C120.242 108.68 119.751 108.765 119.282 108.936C119.879 107.571 120.37 106.461 120.754 105.608C121.138 104.755 121.543 103.901 121.97 103.048C122.396 102.152 122.908 100.957 123.506 99.464C123.847 98.696 124.231 97.8213 124.658 96.84C125.084 95.816 125.447 94.8347 125.746 93.896C126.087 92.9147 126.258 92.1467 126.258 91.592C126.258 90.952 126.044 90.632 125.618 90.632C125.106 90.632 124.594 90.952 124.082 91.592C123.57 92.232 123.1 92.9573 122.674 93.768C122.29 94.536 121.97 95.1547 121.714 95.624C121.074 96.8613 120.434 98.0773 119.794 99.272C119.154 100.467 118.428 101.619 117.618 102.728H117.554C117.426 102.728 117.276 102.685 117.106 102.6C116.978 102.515 116.935 102.451 116.978 102.408C117.703 101.256 118.386 100.104 119.026 98.952C119.708 97.8 120.327 96.648 120.882 95.496C121.351 94.6 121.863 93.6613 122.418 92.68C122.972 91.656 123.612 90.8027 124.338 90.12C125.063 89.4373 125.895 89.096 126.834 89.096C127.26 89.096 127.751 89.2027 128.306 89.416C128.903 89.672 129.202 90.248 129.202 91.144C129.202 91.6133 129.116 92.1893 128.946 92.872C128.775 93.5547 128.54 94.3227 128.242 95.176C129.351 93.5973 130.524 92.2533 131.762 91.144C132.999 89.992 134.13 89.416 135.154 89.416C136.775 89.416 137.586 90.184 137.586 91.72C137.586 92.6587 137.308 93.8107 136.754 95.176C136.583 95.6453 136.263 96.392 135.794 97.416C135.367 98.3973 134.919 99.5067 134.45 100.744C134.023 101.939 133.639 103.091 133.298 104.2C132.956 105.309 132.786 106.227 132.786 106.952C132.786 107.72 133.02 108.104 133.49 108.104C133.788 108.104 134.172 107.976 134.642 107.72C135.154 107.421 135.751 106.952 136.434 106.312C137.671 105.203 138.823 103.795 139.89 102.088C140.999 100.381 142.3 98.0987 143.794 95.24C143.794 95.1547 143.836 95.112 143.922 95.112C144.05 95.112 144.178 95.176 144.306 95.304C144.434 95.432 144.455 95.5387 144.37 95.624C142.834 98.6107 141.426 101.107 140.146 103.112C138.908 105.075 137.65 106.568 136.37 107.592C135.132 108.573 133.746 109.064 132.21 109.064Z" fill="white"/>
<path d="M154.96 109.064C153.168 109.064 152.272 108.061 152.272 106.056C152.272 105.288 152.421 104.371 152.72 103.304C153.018 102.237 153.488 101.064 154.128 99.784C154.469 99.0587 154.917 98.2053 155.472 97.224C156.069 96.2 156.602 95.1973 157.072 94.216C157.541 93.2347 157.776 92.4667 157.776 91.912C157.776 91.3573 157.477 91.08 156.88 91.08C156.069 91.08 155.216 91.528 154.32 92.424C153.466 93.2773 152.613 94.3867 151.76 95.752C150.906 97.1173 150.096 98.5467 149.328 100.04C148.56 101.533 147.898 102.941 147.344 104.264C146.789 105.544 146.384 106.525 146.128 107.208C145.872 107.848 145.509 108.253 145.04 108.424C144.57 108.595 144.058 108.68 143.504 108.68C142.992 108.68 142.501 108.765 142.032 108.936C142.629 107.571 143.12 106.461 143.504 105.608C143.888 104.755 144.293 103.901 144.72 103.048C145.146 102.152 145.658 100.957 146.256 99.464C146.597 98.696 146.981 97.8213 147.408 96.84C147.834 95.816 148.197 94.8347 148.496 93.896C148.837 92.9147 149.008 92.1467 149.008 91.592C149.008 90.952 148.794 90.632 148.368 90.632C147.856 90.632 147.344 90.952 146.832 91.592C146.32 92.232 145.85 92.9573 145.424 93.768C145.04 94.536 144.72 95.1547 144.464 95.624C143.824 96.8613 143.184 98.0773 142.544 99.272C141.904 100.467 141.178 101.619 140.368 102.728H140.304C140.176 102.728 140.026 102.685 139.856 102.6C139.728 102.515 139.685 102.451 139.728 102.408C140.453 101.256 141.136 100.104 141.776 98.952C142.458 97.8 143.077 96.648 143.632 95.496C144.101 94.6 144.613 93.6613 145.168 92.68C145.722 91.656 146.362 90.8027 147.088 90.12C147.813 89.4373 148.645 89.096 149.584 89.096C150.01 89.096 150.501 89.2027 151.056 89.416C151.653 89.672 151.952 90.248 151.952 91.144C151.952 91.6133 151.866 92.1893 151.696 92.872C151.525 93.5547 151.29 94.3227 150.992 95.176C152.101 93.5973 153.274 92.2533 154.512 91.144C155.749 89.992 156.88 89.416 157.904 89.416C159.525 89.416 160.336 90.184 160.336 91.72C160.336 92.6587 160.058 93.8107 159.504 95.176C159.333 95.6453 159.013 96.392 158.544 97.416C158.117 98.3973 157.669 99.5067 157.2 100.744C156.773 101.939 156.389 103.091 156.048 104.2C155.706 105.309 155.536 106.227 155.536 106.952C155.536 107.72 155.77 108.104 156.24 108.104C156.538 108.104 156.922 107.976 157.392 107.72C157.904 107.421 158.501 106.952 159.184 106.312C160.421 105.203 161.573 103.795 162.64 102.088C163.749 100.381 165.05 98.0987 166.544 95.24C166.544 95.1547 166.586 95.112 166.672 95.112C166.8 95.112 166.928 95.176 167.056 95.304C167.184 95.432 167.205 95.5387 167.12 95.624C165.584 98.6107 164.176 101.107 162.896 103.112C161.658 105.075 160.4 106.568 159.12 107.592C157.882 108.573 156.496 109.064 154.96 109.064Z" fill="white"/>
<path d="M161.774 134.344C161.091 134.344 160.558 134.109 160.174 133.64C159.747 133.213 159.534 132.552 159.534 131.656C159.534 130.931 159.704 130.077 160.046 129.096C160.344 128.115 160.835 127.005 161.518 125.768C162.371 124.232 163.374 122.653 164.526 121.032C165.678 119.411 166.872 117.875 168.11 116.424C169.39 114.973 170.606 113.715 171.758 112.648C172.91 111.581 173.87 110.856 174.638 110.472C174.808 110.045 175.043 109.363 175.342 108.424C175.683 107.485 176.024 106.504 176.366 105.48C176.707 104.413 177.006 103.517 177.262 102.792C177.518 102.067 177.646 101.704 177.646 101.704C177.475 101.96 177.134 102.472 176.622 103.24C176.11 104.008 175.448 104.861 174.638 105.8C173.87 106.696 173.016 107.464 172.078 108.104C171.139 108.744 170.158 109.064 169.134 109.064C167.47 109.064 166.638 108.168 166.638 106.376C166.638 104.883 167.299 102.707 168.622 99.848C169.006 99.08 169.432 98.1627 169.902 97.096C170.414 96.0293 170.84 95.0053 171.182 94.024C171.566 93 171.758 92.168 171.758 91.528C171.758 90.9307 171.544 90.632 171.118 90.632C170.606 90.632 170.094 90.952 169.582 91.592C169.07 92.232 168.6 92.9573 168.174 93.768C167.79 94.536 167.47 95.1547 167.214 95.624C166.574 96.8613 165.848 98.2267 165.038 99.72C164.227 101.171 163.416 102.451 162.606 103.56H162.542C162.456 103.56 162.328 103.496 162.158 103.368C161.987 103.24 161.923 103.155 161.966 103.112C162.819 102.003 163.63 100.723 164.398 99.272C165.208 97.8213 165.912 96.4987 166.51 95.304C166.936 94.408 167.427 93.4693 167.982 92.488C168.536 91.5067 169.176 90.696 169.902 90.056C170.755 89.3307 171.608 88.968 172.462 88.968C173.059 88.968 173.55 89.16 173.934 89.544C174.318 89.8853 174.51 90.4187 174.51 91.144C174.51 91.3147 174.488 91.4853 174.446 91.656C174.446 91.8267 174.424 92.0187 174.382 92.232C174.211 93.0427 173.912 94.0453 173.486 95.24C173.102 96.392 172.568 97.7787 171.886 99.4C170.392 102.941 169.646 105.395 169.646 106.76C169.646 107.485 169.88 107.848 170.35 107.848C170.99 107.848 171.95 107.272 173.23 106.12C174.126 105.309 175.022 104.157 175.918 102.664C176.856 101.128 177.731 99.5067 178.542 97.8C179.352 96.0933 180.035 94.5147 180.59 93.064C181.187 91.5707 181.592 90.4613 181.806 89.736C182.531 89.5653 183.342 89.352 184.238 89.096C185.134 88.84 185.923 88.5627 186.606 88.264C186.136 88.776 185.582 89.6293 184.942 90.824C184.344 91.976 183.768 93.2133 183.214 94.536C182.659 95.816 182.19 96.904 181.806 97.8C181.208 99.2933 180.696 100.659 180.27 101.896C179.886 103.091 179.502 104.264 179.118 105.416C178.776 106.568 178.35 107.848 177.838 109.256C179.843 107.976 181.443 106.76 182.638 105.608C183.832 104.456 184.878 103.176 185.774 101.768C186.67 100.36 187.672 98.6107 188.782 96.52C188.867 96.392 188.974 96.328 189.102 96.328C189.486 96.328 189.571 96.4987 189.358 96.84C188.419 98.5893 187.566 100.104 186.798 101.384C186.072 102.621 185.283 103.752 184.43 104.776C183.619 105.757 182.659 106.696 181.55 107.592C180.44 108.445 179.075 109.363 177.454 110.344C176.686 112.264 175.811 114.419 174.83 116.808C173.848 119.197 172.803 121.523 171.694 123.784C170.584 126.088 169.411 128.093 168.174 129.8C167.107 131.293 165.976 132.424 164.782 133.192C163.63 133.96 162.627 134.344 161.774 134.344ZM161.966 133.448C162.478 133.448 163.118 133.064 163.886 132.296C164.696 131.528 165.592 130.291 166.574 128.584C167.384 127.133 168.195 125.533 169.006 123.784C169.859 122.077 170.648 120.392 171.374 118.728C172.099 117.064 172.718 115.613 173.23 114.376C173.742 113.139 174.083 112.307 174.254 111.88C173.358 112.392 172.376 113.181 171.31 114.248C170.243 115.315 169.155 116.531 168.046 117.896C166.936 119.261 165.891 120.691 164.91 122.184C163.928 123.677 163.096 125.107 162.414 126.472C161.39 128.563 160.878 130.291 160.878 131.656C160.878 132.851 161.24 133.448 161.966 133.448Z" fill="white"/>
<path d="M188.745 109C187.763 109 187.059 108.637 186.633 107.912C186.206 107.187 185.993 106.333 185.993 105.352C185.993 104.029 186.27 102.707 186.825 101.384C187.721 99.0373 188.553 97.0107 189.321 95.304C190.131 93.5973 190.942 91.9547 191.753 90.376H190.025C189.854 90.376 189.769 90.2907 189.769 90.12C189.769 89.992 189.833 89.8427 189.961 89.672C190.089 89.5013 190.238 89.416 190.409 89.416H192.265L196.873 80.2C197.598 80.0293 198.366 79.8373 199.177 79.624C200.03 79.368 200.798 79.0907 201.481 78.792C200.798 79.944 199.859 81.4587 198.665 83.336C197.47 85.1707 196.254 87.1973 195.017 89.416H199.561C199.731 89.416 199.817 89.5013 199.817 89.672C199.817 89.8 199.753 89.9493 199.625 90.12C199.497 90.2907 199.347 90.376 199.177 90.376H194.441C193.118 92.7227 191.923 95.1547 190.857 97.672C189.833 100.189 189.15 102.557 188.809 104.776C188.766 104.947 188.745 105.139 188.745 105.352C188.745 105.523 188.745 105.672 188.745 105.8C188.745 106.952 189.129 107.528 189.897 107.528C190.366 107.528 190.899 107.336 191.497 106.952C192.094 106.525 192.67 106.035 193.225 105.48C194.59 104.115 195.763 102.6 196.745 100.936C197.769 99.272 198.707 97.5867 199.561 95.88C199.646 95.7947 199.71 95.752 199.753 95.752C200.051 95.752 200.201 95.9227 200.201 96.264C200.158 96.264 200.03 96.456 199.817 96.84C199.646 97.224 199.539 97.4373 199.497 97.48C198.729 98.9733 197.939 100.403 197.129 101.768C196.318 103.133 195.337 104.435 194.185 105.672C193.545 106.355 192.734 107.08 191.753 107.848C190.771 108.616 189.769 109 188.745 109Z" fill="white"/>
<path d="M201.997 109.384C199.266 109.384 197.389 108.893 196.365 107.912C195.383 106.931 194.893 105.843 194.893 104.648C194.893 103.539 195.17 102.536 195.725 101.64C196.279 100.701 196.834 100.147 197.389 99.976C197.773 99.2933 198.178 98.5467 198.605 97.736C199.074 96.9253 199.501 96.136 199.885 95.368C200.653 93.832 201.442 92.3813 202.253 91.016C203.063 89.608 203.938 88.4773 204.877 87.624C205.858 86.7707 206.882 86.344 207.949 86.344C208.461 86.344 208.994 86.4507 209.549 86.664C210.103 86.92 210.381 87.176 210.381 87.432C210.381 87.6027 210.295 87.7307 210.125 87.816C209.954 87.9013 209.762 87.9227 209.549 87.88C208.781 87.6667 208.077 87.88 207.437 88.52C206.797 89.16 206.477 90.0347 206.477 91.144C206.477 91.3147 206.477 91.5067 206.477 91.72C206.519 91.8907 206.562 92.0827 206.605 92.296C206.861 93.32 207.117 94.4933 207.373 95.816C207.671 97.1387 207.821 98.4827 207.821 99.848C207.821 100.36 207.799 100.872 207.757 101.384C207.714 101.896 207.607 102.387 207.437 102.856C206.882 104.435 206.114 105.693 205.133 106.632C204.194 107.528 203.042 108.189 201.677 108.616C202.701 108.659 203.767 108.573 204.877 108.36C206.029 108.104 207.01 107.741 207.821 107.272C209.229 106.461 210.466 105.352 211.533 103.944C212.642 102.536 213.623 101.064 214.477 99.528C215.33 97.9493 216.098 96.52 216.781 95.24C216.823 95.0693 216.951 94.984 217.165 94.984C217.293 94.984 217.399 95.048 217.485 95.176C217.57 95.2613 217.57 95.368 217.485 95.496C216.631 97.0747 215.757 98.6747 214.861 100.296C213.965 101.875 212.962 103.347 211.853 104.712C210.743 106.035 209.421 107.123 207.885 107.976C206.221 108.915 204.258 109.384 201.997 109.384ZM199.373 108.296C200.226 108.296 201.101 108.019 201.997 107.464C202.893 106.909 203.533 106.099 203.917 105.032C204.386 103.709 204.663 102.237 204.749 100.616C204.877 98.952 204.941 97.3947 204.941 95.944C204.941 94.4933 204.962 93.384 205.005 92.616C205.09 91.4213 205.41 90.312 205.965 89.288C206.519 88.2213 207.458 87.5813 208.781 87.368C208.482 87.1973 208.183 87.112 207.885 87.112C207.159 87.112 206.413 87.432 205.645 88.072C204.877 88.712 204.301 89.288 203.917 89.8C203.319 90.6107 202.743 91.5707 202.189 92.68C201.634 93.7893 201.015 94.9627 200.333 96.2L198.413 99.656C198.541 99.6133 198.733 99.592 198.989 99.592C199.671 99.592 200.098 99.784 200.269 100.168C200.482 100.552 200.546 100.829 200.461 101C200.333 100.957 200.205 100.936 200.077 100.936C199.991 100.893 199.906 100.872 199.821 100.872C199.095 100.872 198.455 101.171 197.901 101.768C197.389 102.365 197.026 103.027 196.813 103.752C196.727 104.051 196.663 104.349 196.621 104.648C196.578 104.904 196.557 105.139 196.557 105.352C196.557 106.376 196.834 107.123 197.389 107.592C197.943 108.061 198.605 108.296 199.373 108.296Z" fill="white"/>
<path d="M224.441 109.064C222.735 109.064 221.561 108.467 220.921 107.272C220.324 106.035 220.025 104.605 220.025 102.984C220.025 101.747 220.132 100.509 220.345 99.272C220.601 98.0347 220.879 96.9467 221.177 96.008C221.604 96.0507 222.479 95.8587 223.801 95.432C225.167 95.0053 226.447 94.4933 227.641 93.896C228.367 93.5547 228.879 93.128 229.177 92.616C229.519 92.104 229.689 91.6347 229.689 91.208C229.689 90.824 229.561 90.504 229.305 90.248C229.092 89.9493 228.751 89.8 228.281 89.8C227.727 89.8 227.108 90.0133 226.425 90.44C225.657 90.9093 224.719 91.656 223.609 92.68C222.5 93.704 221.412 94.8987 220.345 96.264C219.279 97.6293 218.383 99.08 217.657 100.616L215.737 107.016C215.524 107.699 215.247 108.125 214.905 108.296C214.564 108.467 214.159 108.552 213.689 108.552C213.263 108.509 212.815 108.573 212.345 108.744C213.241 105.8 214.201 102.685 215.225 99.4C216.249 96.072 217.359 92.7227 218.553 89.352C219.748 85.9813 221.049 82.76 222.457 79.688C223.908 76.5733 225.529 73.7787 227.321 71.304C228.431 69.8107 229.54 68.68 230.649 67.912C231.801 67.144 232.825 66.76 233.721 66.76C234.404 66.76 234.937 66.9947 235.321 67.464C235.748 67.8907 235.961 68.552 235.961 69.448C235.961 70.1307 235.812 70.984 235.513 72.008C235.215 72.9893 234.703 74.0987 233.977 75.336C233.124 76.872 232.1 78.4507 230.905 80.072C229.753 81.6933 228.537 83.2293 227.257 84.68C226.02 86.1307 224.825 87.3893 223.673 88.456C222.564 89.48 221.625 90.184 220.857 90.568C220.772 90.7813 220.601 91.2507 220.345 91.976C220.089 92.7013 219.812 93.512 219.513 94.408C219.257 95.304 219.001 96.1573 218.745 96.968C219.513 95.8587 220.388 94.7707 221.369 93.704C222.393 92.5947 223.439 91.6347 224.505 90.824C225.615 89.9707 226.596 89.3733 227.449 89.032C228.345 88.648 229.135 88.456 229.817 88.456C230.671 88.456 231.311 88.6907 231.737 89.16C232.207 89.6293 232.441 90.184 232.441 90.824C232.441 91.5493 232.143 92.3173 231.545 93.128C230.991 93.9387 230.095 94.6213 228.857 95.176C227.62 95.7307 226.041 96.008 224.121 96.008C223.78 97.2027 223.481 98.44 223.225 99.72C223.012 100.957 222.905 102.131 222.905 103.24C222.905 104.52 223.076 105.587 223.417 106.44C223.759 107.293 224.292 107.72 225.017 107.72C225.743 107.72 226.66 107.251 227.769 106.312C229.007 105.203 230.265 103.603 231.545 101.512C232.825 99.4213 233.999 97.3307 235.065 95.24C235.151 95.1547 235.215 95.112 235.257 95.112C235.385 95.112 235.513 95.176 235.641 95.304C235.812 95.432 235.855 95.5387 235.769 95.624C233.295 100.061 231.183 103.411 229.433 105.672C227.727 107.933 226.063 109.064 224.441 109.064ZM221.241 89.224C222.436 88.4987 223.759 87.3467 225.209 85.768C226.703 84.1467 228.153 82.3333 229.561 80.328C230.969 78.3227 232.121 76.424 233.017 74.632C233.572 73.5227 233.956 72.5413 234.169 71.688C234.425 70.792 234.553 70.024 234.553 69.384C234.553 68.1893 234.212 67.592 233.529 67.592C233.017 67.592 232.356 67.976 231.545 68.744C230.777 69.512 229.903 70.7707 228.921 72.52C228.111 73.9707 227.279 75.5707 226.425 77.32C225.615 79.0267 224.847 80.712 224.121 82.376C223.396 83.9973 222.777 85.4267 222.265 86.664C221.753 87.9013 221.412 88.7547 221.241 89.224Z" fill="white"/>
<path d="M235.456 109.064C234.006 109.064 233.003 108.659 232.448 107.848C231.936 107.037 231.68 106.035 231.68 104.84C231.68 103.603 231.894 102.301 232.32 100.936C232.747 99.5707 233.152 98.4827 233.536 97.672C234.902 94.8133 236.8 92.6373 239.232 91.144C241.707 89.608 244.246 88.84 246.848 88.84C247.19 88.84 247.531 88.84 247.872 88.84C248.256 88.84 248.619 88.8827 248.96 88.968C249.814 89.096 250.24 89.2027 250.24 89.288C250.24 89.3733 249.92 89.4587 249.28 89.544C248.683 89.6293 248.235 89.672 247.936 89.672C245.846 89.672 243.968 90.2267 242.304 91.336C240.683 92.4453 239.296 93.8533 238.144 95.56C236.992 97.2667 236.096 99.016 235.456 100.808C234.859 102.557 234.56 104.072 234.56 105.352C234.56 106.163 234.688 106.824 234.944 107.336C235.243 107.848 235.67 108.104 236.224 108.104C236.822 108.104 237.504 107.699 238.272 106.888C239.04 106.077 239.787 105.096 240.512 103.944C241.238 102.749 241.899 101.597 242.496 100.488C243.094 99.336 243.542 98.4613 243.84 97.864L246.592 92.104C247.318 91.9333 248.043 91.7413 248.768 91.528C249.536 91.272 250.262 90.9947 250.944 90.696C250.219 91.9333 249.515 93.2347 248.832 94.6C248.192 95.9653 247.531 97.3093 246.848 98.632C246.336 99.6133 245.824 100.765 245.312 102.088C244.843 103.411 244.608 104.605 244.608 105.672V105.928C244.608 106.269 244.651 106.653 244.736 107.08C244.822 107.464 245.056 107.656 245.44 107.656C245.91 107.656 246.507 107.379 247.232 106.824C247.958 106.227 248.47 105.779 248.768 105.48C250.134 104.115 251.307 102.6 252.288 100.936C253.312 99.272 254.251 97.5867 255.104 95.88C255.19 95.7947 255.254 95.752 255.296 95.752C255.638 95.752 255.766 95.9227 255.68 96.264C255.68 96.264 255.574 96.456 255.36 96.84C255.19 97.224 255.083 97.4373 255.04 97.48C254.23 98.9733 253.419 100.403 252.608 101.768C251.798 103.133 250.838 104.435 249.728 105.672C249.046 106.355 248.214 107.08 247.232 107.848C246.251 108.616 245.27 109 244.288 109C243.35 109 242.688 108.637 242.304 107.912C241.92 107.144 241.728 106.291 241.728 105.352C241.728 104.755 241.771 104.179 241.856 103.624C241.984 103.027 242.112 102.515 242.24 102.088C241.942 102.856 241.408 103.795 240.64 104.904C239.915 106.013 239.083 106.995 238.144 107.848C237.248 108.659 236.352 109.064 235.456 109.064Z" fill="white"/>
</svg>
