<svg width="56" height="56" viewBox="0 0 56 56" fill="none" xmlns="http://www.w3.org/2000/svg">
<path d="M30.821 7.24011C29.666 4.89978 26.327 4.89978 25.172 7.24011L19.67 18.3888L7.36636 20.1761C4.78336 20.5494 3.7497 23.7274 5.62103 25.5498L14.5227 34.2274L12.4227 46.4774C11.9794 49.0534 14.6814 51.0158 16.9937 49.8001L26.229 44.9444C25.8949 43.7506 25.7084 42.5203 25.6737 41.2811L15.9904 46.3724L18.004 34.6358C18.0901 34.1328 18.0526 33.6164 17.8949 33.1311C17.7372 32.6458 17.464 32.2061 17.0987 31.8498L8.5727 23.5384L20.356 21.8258C21.3827 21.6764 22.2694 21.0324 22.7267 20.1014L27.9954 9.42645L33.2664 20.1014C33.4921 20.5595 33.8259 20.9558 34.2389 21.2562C34.6519 21.5566 35.1317 21.7521 35.637 21.8258L47.4204 23.5384L44.7207 26.1704C45.9714 26.5018 47.1567 26.9871 48.2604 27.6078L50.372 25.5498C52.2387 23.7274 51.2097 20.5518 48.6267 20.1761L36.323 18.3888L30.821 7.24011ZM53.6667 40.8331C53.6667 44.2367 52.3146 47.5009 49.9079 49.9076C47.5012 52.3144 44.237 53.6664 40.8334 53.6664C37.4298 53.6664 34.1655 52.3144 31.7588 49.9076C29.3521 47.5009 28 44.2367 28 40.8331C28 37.4295 29.3521 34.1653 31.7588 31.7586C34.1655 29.3519 37.4298 27.9998 40.8334 27.9998C44.237 27.9998 47.5012 29.3519 49.9079 31.7586C52.3146 34.1653 53.6667 37.4295 53.6667 40.8331ZM48.6594 35.3404C48.551 35.2318 48.4222 35.1456 48.2805 35.0868C48.1388 35.028 47.9868 34.9977 47.8334 34.9977C47.6799 34.9977 47.528 35.028 47.3862 35.0868C47.2445 35.1456 47.1157 35.2318 47.0074 35.3404L38.5 43.8501L34.6594 40.0071C34.4403 39.788 34.1432 39.665 33.8334 39.665C33.5236 39.665 33.2264 39.788 33.0074 40.0071C32.7883 40.2262 32.6652 40.5233 32.6652 40.8331C32.6652 41.1429 32.7883 41.44 33.0074 41.6591L37.674 46.3258C37.7824 46.4344 37.9111 46.5206 38.0529 46.5794C38.1946 46.6383 38.3466 46.6685 38.5 46.6685C38.6535 46.6685 38.8054 46.6383 38.9472 46.5794C39.0889 46.5206 39.2177 46.4344 39.326 46.3258L48.6594 36.9924C48.768 36.8841 48.8542 36.7553 48.913 36.6136C48.9718 36.4719 49.0021 36.3199 49.0021 36.1664C49.0021 36.013 48.9718 35.861 48.913 35.7193C48.8542 35.5776 48.768 35.4488 48.6594 35.3404Z" fill="#001C13"/>
</svg>
