<svg width="56" height="56" viewBox="0 0 56 56" fill="none" xmlns="http://www.w3.org/2000/svg">
<path fill-rule="evenodd" clip-rule="evenodd" d="M13.5053 32.7133C13.6062 32.7444 13.7091 32.7685 13.8133 32.7857C14.4735 34.3412 15.1299 35.8983 15.7827 37.457C16.9563 40.2617 18.1393 43.1503 18.3983 43.981C18.7227 45.003 19.0633 45.6983 19.4367 46.1743C19.6303 46.417 19.852 46.6317 20.1133 46.795C20.2505 46.8782 20.396 46.947 20.5473 47.0003C21.294 47.2803 21.9753 47.1637 22.4023 47.0213C22.653 46.9361 22.8915 46.8185 23.1117 46.6713L23.1233 46.6667L29.7173 42.5553L37.3357 48.3933C37.4477 48.4789 37.569 48.5512 37.6997 48.6103C38.6143 49.007 39.501 49.147 40.3363 49.035C41.167 48.9183 41.8273 48.5707 42.3197 48.1763C42.8845 47.7202 43.3351 47.1385 43.6357 46.4777L43.6567 46.4263L43.6637 46.4077L43.6683 46.3983V46.3937L43.6707 46.3913C43.7089 46.2902 43.7401 46.1865 43.764 46.081L50.7173 11.0227C50.7365 10.9101 50.7475 10.7962 50.75 10.682C50.75 9.65532 50.3627 8.67765 49.455 8.08732C48.6757 7.58099 47.81 7.55765 47.2617 7.59965C46.6737 7.64632 46.1277 7.79099 45.7613 7.90765C45.5566 7.97375 45.3543 8.04691 45.1547 8.12699L45.129 8.13865L6.12966 23.436L6.125 23.4383C5.99275 23.4861 5.86273 23.5398 5.73533 23.5993C5.42596 23.7381 5.12928 23.9036 4.84866 24.094C4.319 24.4557 3.09866 25.4497 3.30633 27.0923C3.46966 28.399 4.36566 29.204 4.914 29.5913C5.21266 29.8037 5.49733 29.9553 5.70733 30.0557C5.80066 30.1023 6.00133 30.1817 6.08766 30.219L6.111 30.226L13.5053 32.7133ZM46.494 11.3587H46.4893L46.4287 11.3843L7.38266 26.7027L7.322 26.726L7.29866 26.733C7.22717 26.7606 7.15709 26.7918 7.08866 26.8263C7.1539 26.863 7.22087 26.8964 7.28933 26.9267L14.6207 29.3953C14.7501 29.4433 14.875 29.5026 14.994 29.5727L39.207 15.3977L39.2303 15.386C39.3249 15.3297 39.4214 15.2768 39.5197 15.2273C39.6877 15.141 39.956 15.015 40.2593 14.9217C40.4693 14.8563 41.0923 14.672 41.7643 14.889C42.1213 15.0004 42.4396 15.2104 42.6823 15.4948C42.9251 15.7793 43.0825 16.1266 43.1363 16.4967C43.2232 16.8204 43.2256 17.161 43.1433 17.486C42.98 18.1277 42.532 18.627 42.1237 19.0097C41.7737 19.3363 37.233 23.7137 32.7553 28.035L26.6583 33.915L25.5733 34.965L39.2747 45.4697C39.4597 45.5469 39.6605 45.5789 39.8603 45.563C39.961 45.5492 40.0556 45.5071 40.1333 45.4417C40.2278 45.3617 40.3089 45.2671 40.3737 45.1617L40.3783 45.1593L47.1217 11.1557C46.9096 11.2079 46.7014 11.2749 46.4987 11.3563L46.494 11.3587ZM26.7517 40.278L24.017 38.1827L23.3543 42.3943L26.7517 40.278ZM21.5087 34.0247L24.227 31.3997L30.324 25.515L32.5943 23.3263L17.381 32.2327L17.4627 32.424C18.4221 34.6907 19.371 36.9618 20.3093 39.2373L20.9697 35.0373C21.0299 34.648 21.2199 34.2927 21.5087 34.0247Z" fill="white"/>
</svg>
