<svg width="56" height="56" viewBox="0 0 56 56" fill="none" xmlns="http://www.w3.org/2000/svg">
<path fill-rule="evenodd" clip-rule="evenodd" d="M24.234 19.4997C23.9685 19.3403 23.6654 19.2542 23.3557 19.2503C23.046 19.2463 22.7408 19.3246 22.4713 19.4772C22.2018 19.6297 21.9776 19.8511 21.8216 20.1186C21.6656 20.3862 21.5834 20.6903 21.5833 21V35C21.5834 35.3097 21.6656 35.6139 21.8216 35.8814C21.9776 36.149 22.2018 36.3703 22.4713 36.5229C22.7408 36.6754 23.046 36.7537 23.3557 36.7498C23.6654 36.7458 23.9685 36.6598 24.234 36.5004L35.9007 29.5004C36.1597 29.3448 36.374 29.1249 36.5228 28.862C36.6716 28.5991 36.7498 28.3021 36.7498 28C36.7498 27.6979 36.6716 27.401 36.5228 27.138C36.374 26.8751 36.1597 26.6552 35.9007 26.4997L24.234 19.4997ZM31.598 28L25.0833 31.9084V24.0917L31.598 28Z" fill="white"/>
<path fill-rule="evenodd" clip-rule="evenodd" d="M39.7367 10.829C31.9242 10.2179 24.0759 10.2179 16.2633 10.829L11.0343 11.2397C9.48929 11.3601 8.02897 11.9941 6.88599 13.0407C5.74301 14.0872 4.98312 15.4862 4.72734 17.0147C3.51349 24.2879 3.51349 31.7121 4.72734 38.9853C4.98312 40.5138 5.74301 41.9128 6.88599 42.9593C8.02897 44.0059 9.48929 44.6399 11.0343 44.7603L16.261 45.171C24.0753 45.7823 31.9247 45.7823 39.739 45.171L44.9657 44.7603C46.5107 44.6399 47.9711 44.0059 49.114 42.9593C50.257 41.9128 51.0169 40.5138 51.2727 38.9853C52.486 31.7123 52.486 24.2877 51.2727 17.0147C51.0169 15.4862 50.257 14.0872 49.114 13.0407C47.9711 11.9941 46.5107 11.3601 44.9657 11.2397L39.7367 10.829ZM16.5363 14.3197C24.1687 13.7225 31.836 13.7225 39.4683 14.3197L44.695 14.728C46.2723 14.8517 47.5627 16.0347 47.8217 17.5933C48.9756 24.4831 48.9756 31.5169 47.8217 38.4067C47.6953 39.1648 47.3188 39.8589 46.7521 40.3782C46.1855 40.8974 45.4613 41.2121 44.695 41.272L39.4683 41.6803C31.836 42.2775 24.1687 42.2775 16.5363 41.6803L11.3097 41.272C10.5434 41.2121 9.81922 40.8974 9.25256 40.3782C8.6859 39.8589 8.30938 39.1648 8.18301 38.4067C7.02906 31.5169 7.02906 24.4831 8.18301 17.5933C8.30938 16.8352 8.6859 16.1411 9.25256 15.6219C9.81922 15.1026 10.5434 14.7879 11.3097 14.728L16.5363 14.3197Z" fill="white"/>
</svg>
