<svg width="64" height="64" viewBox="0 0 64 64" fill="none" xmlns="http://www.w3.org/2000/svg">
<path d="M39.9999 10.6667H42.6666C43.3739 10.6667 44.0521 10.9477 44.5522 11.4478C45.0523 11.9479 45.3333 12.6262 45.3333 13.3334V22.6667M53.3333 16.0001C54.0373 16.2987 54.7199 16.5787 55.3813 16.8401C56.0323 17.1163 56.5469 17.6398 56.8119 18.2954C57.0769 18.951 57.0707 19.6851 56.7946 20.3361L50.6666 34.6667M9.61061 19.1921L28.6453 10.9014C28.9594 10.7668 29.2972 10.6964 29.639 10.6944C29.9807 10.6925 30.3193 10.7589 30.635 10.8899C30.9506 11.0209 31.2368 11.2137 31.4767 11.457C31.7167 11.7004 31.9054 11.9893 32.0319 12.3067L45.1626 44.0454C45.4355 44.689 45.4448 45.414 45.1885 46.0644C44.9321 46.7148 44.4306 47.2385 43.792 47.5227L24.7599 55.8134C24.4457 55.9485 24.1076 56.0192 23.7656 56.0214C23.4236 56.0236 23.0846 55.9572 22.7686 55.8262C22.4527 55.6952 22.1662 55.5022 21.9261 55.2586C21.686 55.0151 21.4971 54.7259 21.3706 54.4081L8.23995 22.6667C7.96702 22.0232 7.95774 21.2981 8.21409 20.6478C8.47045 19.9974 8.97195 19.4764 9.61061 19.1921Z" stroke="#001C13" stroke-width="2" stroke-linecap="round" stroke-linejoin="round"/>
</svg>
