<svg width="55" height="47" viewBox="0 0 55 47" fill="none" xmlns="http://www.w3.org/2000/svg">
<path d="M47.8087 31.5127V11.4167C47.8087 6.38733 47.8087 3.87533 46.246 2.31267C44.686 0.75 42.1713 0.75 37.142 0.75H27.4167M47.8087 31.5127L52.4593 36.3127L52.694 36.558C53.5494 37.4977 54.0411 38.7119 54.0807 39.982L54.0833 40.3207C54.0833 40.7207 54.0833 40.918 54.0727 41.086C53.9909 42.3817 53.4392 43.6031 52.5212 44.5212C51.6031 45.4392 50.3817 45.9909 49.086 46.0727C48.831 46.0835 48.5758 46.0871 48.3207 46.0833H6.51267C6.11267 46.0833 5.91533 46.0833 5.74733 46.0727C4.4516 45.9909 3.23021 45.4392 2.31216 44.5212C1.39412 43.6031 0.842477 42.3817 0.760667 41.086C0.75 40.918 0.75 40.718 0.75 40.3233L0.752666 39.9847C0.792236 38.7146 1.28398 37.5004 2.13933 36.5607L2.374 36.3153L7.02467 31.5153M47.8087 31.5127L40.846 31.5153M7.02467 31.5153V11.4167C7.02467 6.38733 7.02467 3.87533 8.58733 2.31267C10.15 0.75 12.662 0.75 17.6913 0.75M7.02467 31.5153L30.0833 31.5127M20.75 39.4167H34.0833" stroke="#E5EEEB" stroke-width="1.5" stroke-linecap="round"/>
<path d="M29.4167 8.08325C29.4167 8.61368 29.2059 9.12239 28.8309 9.49747C28.4558 9.87254 27.9471 10.0833 27.4167 10.0833C26.8862 10.0833 26.3775 9.87254 26.0024 9.49747C25.6274 9.12239 25.4167 8.61368 25.4167 8.08325C25.4167 7.55282 25.6274 7.04411 26.0024 6.66904C26.3775 6.29397 26.8862 6.08325 27.4167 6.08325C27.9471 6.08325 28.4558 6.29397 28.8309 6.66904C29.2059 7.04411 29.4167 7.55282 29.4167 8.08325Z" fill="#E5EEEB"/>
</svg>
