<svg width="50" height="55" viewBox="0 0 50 55" fill="none" xmlns="http://www.w3.org/2000/svg">
<path d="M2.13256 22.8993C1.09789 20.0353 0.580555 18.6033 0.799222 17.686C1.04189 16.6807 1.75656 15.8993 2.66856 15.638C3.50322 15.398 4.80189 15.9767 7.39656 17.1313C9.68989 18.15 10.8366 18.6593 11.9166 18.6327C13.1059 18.6007 14.2472 18.126 15.1566 17.2807C15.9832 16.5153 16.5352 15.2967 17.6419 12.8593L20.0819 7.48333C22.1192 2.99533 23.1379 0.75 24.7512 0.75C26.3646 0.75 27.3832 2.99533 29.4206 7.48333L31.8606 12.8593C32.9672 15.2967 33.5219 16.5153 34.3459 17.2807C35.2552 18.1233 36.3992 18.6007 37.5859 18.6327C38.6632 18.6593 39.8126 18.15 42.1059 17.1287C44.7032 15.9767 45.9992 15.398 46.8339 15.638C47.7459 15.8993 48.4606 16.6807 48.7006 17.686C48.9219 18.6033 48.4046 20.0327 47.3672 22.8993L42.9219 35.2087C41.0179 40.4753 40.0686 43.1073 38.0766 44.5953C36.0846 46.0833 33.5112 46.0833 28.3672 46.0833H21.1352C15.9886 46.0833 13.4179 46.0833 11.4286 44.5953C9.43656 43.1073 8.48456 40.4753 6.58056 35.2087L2.13256 22.8993Z" stroke="#E5EEEB" stroke-width="1.5"/>
<path d="M24.7512 32.75H24.7752" stroke="#E5EEEB" stroke-width="2" stroke-linecap="round" stroke-linejoin="round"/>
<path d="M11.4178 54.0833H38.0845" stroke="#E5EEEB" stroke-width="1.5" stroke-linecap="round"/>
</svg>
