<svg width="205" height="205" viewBox="0 0 205 205" fill="none" xmlns="http://www.w3.org/2000/svg">
<g clip-path="url(#clip0_3_106)">
<path d="M97.7177 105.618C98.544 102.854 94.3989 103.14 93.1221 104.244C89.663 107.237 91.7457 112.611 94.9672 114.809C100.729 118.742 108.398 115.43 111.502 109.743C116.059 101.396 111.382 91.1684 103.214 87.2384C92.3275 82 79.4623 88.0896 74.7399 98.7454C68.7952 112.154 76.3201 127.686 89.4683 133.192C105.394 139.856 123.611 130.887 129.884 115.242C137.278 96.8031 126.858 75.8967 108.715 68.8563C87.7682 60.7291 64.1589 72.6029 56.36 93.2466C47.4972 116.702 60.8288 143.012 83.9718 151.574C109.936 161.177 138.951 146.385 148.266 120.743C158.61 92.2732 142.358 60.548 114.212 50.4763" stroke="white" stroke-opacity="0.1" stroke-width="5.92" stroke-miterlimit="10"/>
<path d="M103.373 0H101.627V45.9849H103.373V0Z" fill="white" fill-opacity="0.1"/>
<path d="M103.373 159.015H101.627V205H103.373V159.015Z" fill="white" fill-opacity="0.1"/>
<path d="M205.002 103.613V101.867H159.017V103.613H205.002Z" fill="white" fill-opacity="0.1"/>
<path d="M45.9849 103.613V101.867H-1.14441e-05V103.613H45.9849Z" fill="white" fill-opacity="0.1"/>
<path d="M175.595 31.7519L174.361 30.5177L141.845 63.034L143.079 64.2681L175.595 31.7519Z" fill="white" fill-opacity="0.1"/>
<path d="M63.154 144.195L61.9199 142.961L29.4036 175.477L30.6378 176.711L63.154 144.195Z" fill="white" fill-opacity="0.1"/>
<path d="M27.6369 29.1097L26.4027 30.3439L58.9189 62.8601L60.1531 61.6259L27.6369 29.1097Z" fill="white" fill-opacity="0.1"/>
<path d="M149.404 148.258L148.17 149.492L180.686 182.008L181.92 180.774L149.404 148.258Z" fill="white" fill-opacity="0.1"/>
<path d="M124.829 50.8385C124.829 50.8385 124.836 50.748 124.85 50.5759C124.868 50.4061 124.886 50.1548 124.929 49.8447C124.967 49.5323 125.013 49.1497 125.08 48.7196C125.114 48.5045 125.151 48.2759 125.189 48.0336C125.205 47.9114 125.257 47.8005 125.316 47.6895C125.375 47.5786 125.418 47.4586 125.468 47.3386C126.255 45.4031 127.308 42.8223 128.358 40.2438C129.409 37.6631 130.462 35.0846 131.249 33.149C131.297 33.0268 131.351 32.9113 131.387 32.7914C131.419 32.6691 131.467 32.5559 131.544 32.4586C131.686 32.2594 131.822 32.0715 131.949 31.8926C132.198 31.5372 132.431 31.2316 132.621 30.9803C132.809 30.7268 132.968 30.5343 133.072 30.4008C133.18 30.2695 133.237 30.197 133.237 30.197C133.237 30.197 133.228 30.2876 133.214 30.4574C133.194 30.6249 133.174 30.8762 133.131 31.1886C133.09 31.501 133.045 31.8813 132.974 32.3114C132.94 32.5265 132.906 32.7574 132.868 32.9974C132.854 33.1196 132.811 33.2351 132.748 33.3437C132.691 33.4547 132.648 33.5769 132.596 33.6969C131.809 35.6324 130.756 38.2132 129.705 40.7917C128.655 43.3724 127.602 45.9509 126.815 47.8865C126.767 48.0087 126.713 48.1242 126.679 48.2442C126.645 48.3664 126.604 48.4796 126.529 48.5792C126.389 48.7784 126.255 48.9686 126.129 49.1452C125.875 49.5006 125.642 49.8039 125.449 50.0552C125.262 50.3088 125.099 50.4989 124.994 50.6325C124.886 50.7638 124.827 50.834 124.827 50.834L124.829 50.8385Z" fill="white" fill-opacity="0.1"/>
<path d="M77.1667 48.9324C77.1667 48.9324 77.1124 48.8599 77.0083 48.7241C76.9087 48.586 76.7547 48.3868 76.5782 48.1265C76.397 47.8661 76.1797 47.5515 75.9398 47.187C75.822 47.0036 75.6975 46.8089 75.564 46.6029C75.4961 46.501 75.4598 46.3833 75.4304 46.2611C75.401 46.1388 75.3512 46.0211 75.3104 45.8966C74.6086 43.9294 73.6737 41.3033 72.7365 38.6796C71.8015 36.0558 70.8643 33.432 70.1625 31.4625C70.1172 31.3403 70.081 31.218 70.0267 31.1026C69.9678 30.9916 69.9293 30.8739 69.9225 30.7517C69.8954 30.5094 69.8705 30.2785 69.8478 30.0612C69.7958 29.6288 69.7663 29.2462 69.7414 28.9316C69.712 28.6192 69.7029 28.3679 69.6916 28.1981C69.6848 28.0283 69.6803 27.9377 69.6803 27.9377C69.6803 27.9377 69.7346 28.0102 69.8365 28.1483C69.9338 28.2864 70.0855 28.4879 70.2621 28.7482C70.4409 29.0085 70.6605 29.3232 70.8937 29.6899C71.0137 29.8733 71.1382 30.068 71.2718 30.2717C71.3442 30.3713 71.3872 30.4868 71.4121 30.6113C71.4438 30.7336 71.4936 30.8513 71.5344 30.9735C72.2361 32.9408 73.1711 35.5668 74.1083 38.1906C75.0433 40.8143 75.9805 43.4381 76.6823 45.4076C76.7276 45.5299 76.7638 45.6521 76.8181 45.7653C76.8747 45.8785 76.92 45.9917 76.9313 46.1139C76.9585 46.3562 76.9856 46.5871 77.0105 46.8044C77.0581 47.2391 77.0875 47.6216 77.1124 47.9363C77.1418 48.2487 77.1486 48.5023 77.1577 48.6721C77.1645 48.8441 77.1667 48.9347 77.1667 48.9347V48.9324Z" fill="white" fill-opacity="0.1"/>
<path d="M80.0712 159.137C80.0712 159.137 80.0463 159.504 79.9286 160.113C79.8154 160.726 79.6004 161.578 79.2631 162.569C79.0887 163.063 78.9031 163.597 78.645 164.138C78.3915 164.681 78.0474 165.222 77.701 165.786C77.3524 166.35 77.0332 166.947 76.7864 167.588C76.5306 168.224 76.3337 168.897 76.1662 169.58C75.9986 170.264 75.8288 170.948 75.6093 171.597C75.3897 172.247 75.1746 172.89 74.955 173.506C74.7354 174.121 74.5 174.708 74.251 175.251C73.9997 175.794 73.7507 176.306 73.5084 176.77C73.2662 177.234 73.0308 177.655 72.8112 178.027C72.5961 178.398 72.3946 178.715 72.2248 178.975C71.8853 179.496 71.6612 179.779 71.6612 179.779L71.5253 179.724C71.5253 179.724 71.5638 179.364 71.6838 178.756C71.7449 178.452 71.8219 178.083 71.9283 177.669C72.0302 177.252 72.1569 176.786 72.3063 176.283C72.4558 175.781 72.6346 175.242 72.8361 174.678C73.0376 174.115 73.2798 173.531 73.5514 172.938C73.8254 172.344 74.1197 171.735 74.4162 171.115C74.7128 170.495 75.0705 169.888 75.4281 169.284C75.7858 168.677 76.1163 168.059 76.3767 167.425C76.6483 166.796 76.8362 166.144 76.9811 165.499C77.1283 164.853 77.2596 164.226 77.4588 163.66C77.6535 163.092 77.8934 162.581 78.1153 162.105C78.5681 161.161 79.0072 160.4 79.3559 159.884C79.6954 159.366 79.9354 159.085 79.9354 159.085L80.0712 159.14V159.137Z" fill="white" fill-opacity="0.1"/>
<path d="M127.736 160.989C127.736 160.989 127.962 161.279 128.279 161.813C128.603 162.345 129.01 163.124 129.42 164.086C129.619 164.57 129.837 165.093 130.007 165.668C130.181 166.241 130.283 166.875 130.403 167.527C130.518 168.179 130.679 168.838 130.921 169.478C131.154 170.124 131.455 170.755 131.788 171.376C132.119 171.996 132.449 172.618 132.719 173.25C132.988 173.882 133.255 174.502 133.502 175.109C133.749 175.713 133.964 176.308 134.14 176.881C134.317 177.454 134.471 177.999 134.598 178.509C134.727 179.018 134.831 179.489 134.914 179.91C135.003 180.329 135.064 180.7 135.109 181.008C135.202 181.622 135.225 181.984 135.225 181.984L135.087 182.034C135.087 182.034 134.874 181.739 134.559 181.205C134.401 180.938 134.213 180.612 134.016 180.232C133.814 179.854 133.597 179.421 133.375 178.946C133.153 178.47 132.927 177.95 132.7 177.395C132.474 176.84 132.266 176.245 132.073 175.62C131.881 174.995 131.695 174.346 131.505 173.685C131.315 173.024 131.175 172.335 131.039 171.645C130.903 170.954 130.735 170.273 130.509 169.628C130.292 168.978 129.997 168.365 129.676 167.787C129.357 167.208 129.035 166.653 128.807 166.099C128.574 165.546 128.411 165.003 128.259 164.503C127.967 163.497 127.788 162.637 127.704 162.019C127.611 161.406 127.605 161.039 127.605 161.039L127.743 160.989H127.736Z" fill="white" fill-opacity="0.1"/>
<path d="M165.444 128.078C165.444 128.078 165.811 128.082 166.427 128.166C167.045 128.245 167.907 128.413 168.915 128.696C169.417 128.841 169.961 128.999 170.515 129.225C171.072 129.447 171.631 129.764 172.213 130.077C172.795 130.394 173.411 130.679 174.063 130.892C174.712 131.111 175.394 131.272 176.087 131.401C176.779 131.53 177.47 131.661 178.133 131.845C178.794 132.028 179.446 132.207 180.073 132.392C180.7 132.578 181.298 132.78 181.855 133.001C182.412 133.221 182.935 133.443 183.412 133.66C183.89 133.878 184.322 134.09 184.705 134.287C185.087 134.48 185.416 134.665 185.683 134.819C186.222 135.129 186.516 135.34 186.516 135.34L186.468 135.478C186.468 135.478 186.106 135.46 185.49 135.374C185.183 135.331 184.811 135.274 184.39 135.191C183.969 135.111 183.496 135.012 182.987 134.889C182.477 134.767 181.929 134.618 181.354 134.448C180.779 134.278 180.184 134.068 179.577 133.83C178.971 133.59 178.346 133.33 177.712 133.067C177.078 132.804 176.451 132.481 175.826 132.157C175.201 131.833 174.565 131.537 173.92 131.31C173.277 131.075 172.616 130.921 171.962 130.812C171.31 130.701 170.676 130.604 170.099 130.437C169.521 130.274 168.996 130.063 168.51 129.868C167.543 129.47 166.757 129.071 166.223 128.752C165.687 128.44 165.395 128.218 165.395 128.218L165.442 128.08L165.444 128.078Z" fill="white" fill-opacity="0.1"/>
<path d="M164.67 80.3836C164.67 80.3836 164.946 80.1414 165.462 79.795C165.974 79.4418 166.73 78.9936 167.67 78.5318C168.141 78.3054 168.652 78.0586 169.218 77.8594C169.782 77.6557 170.409 77.5176 171.052 77.3636C171.697 77.212 172.347 77.015 172.974 76.7388C173.605 76.4717 174.219 76.1344 174.821 75.7699C175.423 75.4054 176.025 75.041 176.641 74.7376C177.257 74.4343 177.864 74.1332 178.454 73.8525C179.045 73.574 179.627 73.325 180.189 73.119C180.75 72.913 181.287 72.7274 181.789 72.5711C182.289 72.4149 182.753 72.2836 183.17 72.1772C183.584 72.0663 183.951 71.9848 184.254 71.9214C184.861 71.7947 185.223 71.7539 185.223 71.7539L185.28 71.8875C185.28 71.8875 184.999 72.1161 184.481 72.4602C184.223 72.6323 183.908 72.8383 183.539 73.0556C183.172 73.2775 182.753 73.5174 182.292 73.7664C181.83 74.0155 181.323 74.269 180.782 74.5248C180.241 74.7806 179.657 75.0229 179.043 75.2492C178.43 75.4756 177.791 75.6975 177.144 75.9239C176.496 76.1502 175.815 76.3268 175.131 76.5011C174.45 76.6754 173.78 76.8792 173.146 77.1418C172.507 77.3953 171.914 77.7213 171.355 78.0745C170.794 78.4254 170.257 78.7763 169.716 79.0366C169.177 79.2992 168.645 79.4916 168.152 79.6705C167.165 80.0168 166.316 80.2432 165.705 80.3632C165.096 80.49 164.731 80.5171 164.731 80.5171L164.675 80.3836H164.67Z" fill="white" fill-opacity="0.1"/>
<path d="M44.0426 79.1498C44.0426 79.1498 43.6758 79.1453 43.0601 79.0615C42.442 78.9823 41.5795 78.8148 40.5721 78.5318C40.0696 78.3846 39.5262 78.2284 38.9716 78.0021C38.4147 77.7802 37.8555 77.4633 37.2737 77.1509C36.6919 76.8339 36.0762 76.5487 35.4242 76.3359C34.7745 76.1163 34.0931 75.9556 33.4004 75.8265C32.7076 75.6975 32.0172 75.5662 31.3539 75.3828C30.6928 75.1994 30.0408 75.0206 29.4138 74.835C28.7867 74.6493 28.189 74.4479 27.6321 74.226C27.0752 74.0064 26.5523 73.7846 26.0746 73.5672C25.597 73.3499 25.1646 73.1371 24.782 72.9402C24.3994 72.7477 24.0712 72.5621 23.804 72.4082C23.2652 72.098 22.9709 71.8875 22.9709 71.8875L23.0185 71.7494C23.0185 71.7494 23.3807 71.7675 23.9965 71.8535C24.3043 71.8965 24.6756 71.9531 25.0967 72.0369C25.5177 72.1161 25.9909 72.2157 26.5002 72.338C27.0096 72.4602 27.5574 72.6096 28.1325 72.7794C28.7075 72.9492 29.3028 73.1597 29.9095 73.3974C30.5163 73.6374 31.1411 73.8978 31.7749 74.1604C32.4088 74.423 33.0359 74.7467 33.6607 75.0704C34.2855 75.3941 34.9216 75.6907 35.5668 75.9171C36.2098 76.1525 36.8708 76.3065 37.525 76.4151C38.177 76.526 38.8109 76.6234 39.3882 76.7909C39.9654 76.9539 40.4906 77.1644 40.9774 77.3591C41.944 77.7576 42.7295 78.156 43.2638 78.4752C43.8003 78.7876 44.0924 79.0095 44.0924 79.0095L44.0448 79.1475L44.0426 79.1498Z" fill="white" fill-opacity="0.1"/>
<path d="M44.8145 126.844C44.8145 126.844 44.5384 127.086 44.0222 127.433C43.5106 127.786 42.7545 128.234 41.815 128.696C41.3441 128.922 40.8325 129.169 40.2665 129.368C39.7028 129.572 39.0758 129.71 38.4328 129.864C37.7876 130.016 37.1379 130.213 36.5109 130.489C35.8792 130.756 35.2658 131.093 34.6636 131.458C34.0614 131.822 33.4592 132.187 32.8435 132.49C32.2277 132.793 31.621 133.094 31.0302 133.375C30.4393 133.654 29.8575 133.903 29.2961 134.109C28.7346 134.315 28.1981 134.5 27.6955 134.656C27.1952 134.813 26.7312 134.944 26.3146 135.05C25.9003 135.161 25.5336 135.243 25.2303 135.306C24.6235 135.433 24.2613 135.474 24.2613 135.474L24.2047 135.34C24.2047 135.34 24.4855 135.111 25.0039 134.767C25.2619 134.595 25.5766 134.389 25.9456 134.172C26.3124 133.95 26.7312 133.71 27.193 133.461C27.6548 133.212 28.1619 132.959 28.7029 132.703C29.244 132.447 29.8281 132.205 30.4416 131.978C31.0551 131.752 31.6934 131.53 32.3432 131.304C32.9906 131.077 33.672 130.901 34.3557 130.726C35.0371 130.552 35.7072 130.348 36.3411 130.086C36.9795 129.832 37.5726 129.506 38.1317 129.153C38.6932 128.802 39.2297 128.451 39.7708 128.191C40.3095 127.928 40.8415 127.736 41.335 127.557C42.3221 127.211 43.171 126.984 43.7822 126.867C44.3912 126.74 44.7557 126.713 44.7557 126.713L44.8123 126.846L44.8145 126.844Z" fill="white" fill-opacity="0.1"/>
</g>
<defs>
<clipPath id="clip0_3_106">
<rect width="205" height="205" fill="white"/>
</clipPath>
</defs>
</svg>
