<svg width="223" height="237" viewBox="0 0 223 237" fill="none" xmlns="http://www.w3.org/2000/svg">
<path d="M100.855 125.212C102.689 119.075 93.4918 119.708 90.659 122.161C82.9841 128.806 87.6051 140.738 94.7526 145.618C107.536 154.348 124.553 146.995 131.439 134.369C141.55 115.838 131.173 93.1305 113.051 84.4052C88.896 72.7748 60.3514 86.295 49.8738 109.953C36.6839 139.722 53.3797 174.206 82.5522 186.43C117.888 201.226 158.306 181.313 172.224 146.578C188.629 105.64 165.509 59.2245 125.256 43.5934C78.7801 25.5498 26.3972 51.9116 9.09367 97.7444C-10.5706 149.82 19.0087 208.233 70.3568 227.241C127.963 248.562 192.341 215.722 213.009 158.791C235.959 95.5832 199.9 25.1477 137.451 2.78662" stroke="#E5EEEB" stroke-opacity="0.5" stroke-width="5.92" stroke-miterlimit="10"/>
</svg>
